HIERARCHY
ROOT Hips
{
  OFFSET 53.8365 85.0591 4.78294
  CHANNELS 6 Xposition Yposition Zposition Zrotation Xrotation Yrotation
  JOINT spine
  {
    OFFSET 0 6.3926 0.367606
    CHANNELS 3 Zrotation Xrotation Yrotation
    JOINT spine1
    {
      OFFSET 0 9.17611 0
      CHANNELS 3 Zrotation Xrotation Yrotation
      JOINT spine2
      {
        OFFSET 0 8.79238 0
        CHANNELS 3 Zrotation Xrotation Yrotation
        JOINT Neck
        {
          OFFSET 0 22.5737 1.07624
          CHANNELS 3 Zrotation Xrotation Yrotation
          JOINT Head
          {
            OFFSET 0 6.82011 0
            CHANNELS 3 Zrotation Xrotation Yrotation
            End Site
            {
              OFFSET 0 16.5085 -5.44427
            }
          }
        }
        JOINT RightShoulder
        {
          OFFSET -3.70221 9.49509 -0.515508
          CHANNELS 3 Zrotation Xrotation Yrotation
          JOINT RightArm
          {
            OFFSET 0 12.4537 0
            CHANNELS 3 Zrotation Xrotation Yrotation
            JOINT RightArmRoll
            {
              OFFSET 0 6.28686 0
              CHANNELS 3 Zrotation Xrotation Yrotation
              JOINT RightForeArm
              {
                OFFSET 0 18.3114 0
                CHANNELS 3 Zrotation Xrotation Yrotation
                JOINT RightForeArmRoll
                {
                  OFFSET 0 7.05482 0
                  CHANNELS 3 Zrotation Xrotation Yrotation
                  JOINT RightHand
                  {
                    OFFSET 0 14.1575 0
                    CHANNELS 3 Zrotation Xrotation Yrotation
                    End Site
                    {
                      OFFSET 0 0 0
                    }
                  }
                }
              }
            }
          }
        }
        JOINT LeftShoulder
        {
          OFFSET 3.70221 9.49509 -0.515508
          CHANNELS 3 Zrotation Xrotation Yrotation
          JOINT LeftArm
          {
            OFFSET 0 12.4537 0
            CHANNELS 3 Zrotation Xrotation Yrotation
            JOINT LeftArmRoll
            {
              OFFSET 0 6.28686 0
              CHANNELS 3 Zrotation Xrotation Yrotation
              JOINT LeftForeArm
              {
                OFFSET 0 18.3114 0
                CHANNELS 3 Zrotation Xrotation Yrotation
                JOINT LeftForeArmRoll
                {
                  OFFSET 0 7.05482 0
                  CHANNELS 3 Zrotation Xrotation Yrotation
                  JOINT LeftHand
                  {
                    OFFSET 0 14.1575 0
                    CHANNELS 3 Zrotation Xrotation Yrotation
                    End Site
                    {
                      OFFSET 0 0 0
                    }
                  }
                }
              }
            }
          }
        }
      }
    }
  }
  JOINT RightUpLeg
  {
    OFFSET -5.66616 -1.03903 -0.87161
    CHANNELS 3 Zrotation Xrotation Yrotation
    JOINT RightUpLegRoll
    {
      OFFSET 0 16.6005 0
      CHANNELS 3 Zrotation Xrotation Yrotation
      JOINT RightLeg
      {
        OFFSET 0 -20.5572 0
        CHANNELS 3 Zrotation Xrotation Yrotation
        JOINT RightLegRoll
        {
          OFFSET 0 20.6244 0
          CHANNELS 3 Zrotation Xrotation Yrotation
          JOINT RightFoot
          {
            OFFSET 0 17.1664 0
            CHANNELS 3 Zrotation Xrotation Yrotation
            JOINT RightToeBase
            {
              OFFSET 0 14.3502 0
              CHANNELS 3 Zrotation Xrotation Yrotation
              End Site
              {
                OFFSET 0.00608252 6.94971 -0.801061
              }
            }
          }
        }
      }
    }
  }
  JOINT LeftUpLeg
  {
    OFFSET 5.66616 -1.03903 -0.87161
    CHANNELS 3 Zrotation Xrotation Yrotation
    JOINT LeftUpLegRoll
    {
      OFFSET 0 16.6006 0
      CHANNELS 3 Zrotation Xrotation Yrotation
      JOINT LeftLeg
      {
        OFFSET 0 20.5571 0
        CHANNELS 3 Zrotation Xrotation Yrotation
        JOINT LeftLegRoll
        {
          OFFSET 0 20.8151 0
          CHANNELS 3 Zrotation Xrotation Yrotation
          JOINT LeftFoot
          {
            OFFSET 0 16.9757 0
            CHANNELS 3 Zrotation Xrotation Yrotation
            JOINT LeftToeBase
            {
              OFFSET 0 14.3502 0
              CHANNELS 3 Zrotation Xrotation Yrotation
              End Site
              {
                OFFSET -0.0272592 6.94971 -0.801061
              }
            }
          }
        }
      }
    }
  }
}
MOTION
Frames: 6
Frame Time: 0.00208333
52.5354 91.209 9.2319 -0.519359 5.65406 -1.35523 -0.377429 -2.03936 0.0691517 -0.752183 -0.0765771 0.173869 -0.754507 1.56841 0.186503 1.58624 12.5439 -0.949791 -0.738777 6.19483 -0.477886 49.679 -12.2594 -7.89182 83.4466 18.7931 38.6331 9.08362e-007 -1.01252e-006 -3.84796e-006 -5.43961 2.95307 -0.301148 1.62301e-006 -2.84595e-006 -3.00204 8.02909 -4.9514 0.697695 -43.1196 -12.7497 8.50465 -90.9178 14.0392 -33.1326 1.61708e-005 1.56403e-006 4.20762e-006 9.67902 25.1472 -3.02664 9.35215e-006 -1.01099e-006 3 -8.02888 -4.95147 -0.697695 178.871 16.2429 0.414666 -180 7.01588e-015 179.121 174.996 20.5622 179.937 -2.46362e-006 3.61397e-006 0.276505 -17.2216 66.872 18.66 8.13543 25.2165 -3.47968 -177.623 13.3281 1.50381 4.54188e-006 -4.6773e-006 -0.980548 -1.35366 -21.3906 0.52758 -4.17324e-007 -3.52577e-006 -0.264578 18.1045 67.5869 -19.1885 -8.13491 25.2092 3.48705 
52.5377 91.0802 9.23533 -0.623918 5.58818 -1.35106 -0.356279 -2.0273 0.0833596 -0.709594 -0.052493 0.200354 -0.712226 1.59251 0.212284 1.7485 12.6555 -1.00226 -0.880378 6.04379 -0.483205 50.05 -12.0878 -7.75228 83.6641 18.6464 38.4563 9.08362e-007 -1.01252e-006 -3.84796e-006 -5.37486 2.53964 -0.322119 1.62301e-006 -2.84595e-006 -3.00463 8.02909 -4.9514 0.697695 -43.516 -12.4382 8.22962 -91.1509 13.8204 -32.8454 1.61708e-005 1.56403e-006 4.20762e-006 9.4424 24.4362 -2.90073 9.35215e-006 -1.01099e-006 3 -8.02888 -4.95147 -0.697695 179.175 16.2166 0.236827 -180 7.01589e-015 179.125 175 20.6009 179.937 -2.46362e-006 3.61397e-006 0.276153 -17.2138 66.8772 18.6626 8.13254 25.1725 -3.4577 -177.683 13.3423 1.54423 4.54188e-006 -4.6773e-006 -0.980677 -1.32561 -21.5564 0.538582 -4.17324e-007 -3.52577e-006 -0.267031 18.1088 67.6046 -19.2027 -8.13059 25.1451 3.48516 
52.5208 90.9297 9.24937 -0.730328 5.52113 -1.34704 -0.334677 -2.01549 0.0979575 -0.666091 -0.0288739 0.227559 -0.66904 1.61613 0.238768 1.91229 12.7722 -1.05539 -1.02443 5.89289 -0.488666 50.4223 -11.9189 -7.61752 83.8908 18.4983 38.2415 9.08362e-007 -1.01252e-006 -3.84796e-006 -5.28006 2.17423 -0.344648 1.62301e-006 -2.84595e-006 -3.00767 8.02909 -4.9514 0.697695 -43.917 -12.1171 7.95046 -91.3757 13.5832 -32.4523 1.61708e-005 1.56403e-006 4.20762e-006 9.11435 23.6561 -2.73874 9.35215e-006 -1.01099e-006 3 -8.02888 -4.95147 -0.697695 179.482 16.1903 0.0530328 -180 7.0159e-015 179.129 175.009 20.6337 179.935 -2.46362e-006 3.61397e-006 0.275476 -17.2023 66.8812 18.6642 8.12831 25.107 -3.42502 -177.739 13.356 1.58341 4.54188e-006 -4.6773e-006 -0.980655 -1.29421 -21.7206 0.550528 -4.17324e-007 -3.52577e-006 -0.268805 18.1012 67.6114 -19.2081 -8.12417 25.0497 3.48237 
52.5064 90.8166 9.25901 -0.837678 5.45323 -1.34303 -0.312796 -2.00386 0.11282 -0.62203 -0.00561802 0.25525 -0.6253 1.63939 0.265731 2.0771 12.8923 -1.10903 -1.17036 5.74237 -0.49433 50.7955 -11.7534 -7.48766 84.1247 18.3497 37.9959 9.08362e-007 -1.01252e-006 -3.84796e-006 -5.16061 1.85283 -0.368287 1.62301e-006 -2.84595e-006 -3.01111 8.02909 -4.9514 0.697695 -44.3215 -11.7884 7.66893 -91.5911 13.3298 -31.9686 1.61708e-005 1.56403e-006 4.20762e-006 8.71037 22.818 -2.5472 9.35215e-006 -1.01099e-006 3 -8.02888 -4.95147 -0.697695 179.791 16.1648 -0.13497 -180 7.01591e-015 179.134 175.023 20.6643 179.932 -2.46362e-006 3.61397e-006 0.274572 -17.1883 66.8846 18.6652 8.12323 25.0265 -3.3849 -177.792 13.3698 1.62179 4.54188e-006 -4.6773e-006 -0.980554 -1.25973 -21.8846 0.563314 -4.17324e-007 -3.52577e-006 -0.270092 18.0847 67.6098 -19.2068 -8.11629 24.9324 3.47896 
52.4908 90.6709 9.26839 -0.945059 5.38481 -1.33887 -0.290813 -1.99236 0.127821 -0.577763 0.0173766 0.283197 -0.581357 1.66239 0.292946 2.24242 13.0142 -1.16304 -1.31757 5.59247 -0.500256 51.1691 -11.5917 -7.36283 84.364 18.2015 37.7264 9.08362e-007 -1.01252e-006 -3.84796e-006 -5.0219 1.57146 -0.39259 1.62301e-006 -2.84595e-006 -3.01487 8.02909 -4.9514 0.697695 -44.7286 -11.4543 7.38676 -91.7964 13.0626 -31.4096 1.61708e-005 1.56403e-006 4.20762e-006 8.24564 21.933 -2.33237 9.35215e-006 -1.01099e-006 3 -8.02888 -4.95147 -0.697695 -179.902 16.1411 -0.325439 -180 7.01592e-015 179.138 175.042 20.6963 179.929 -2.46362e-006 3.61397e-006 0.273544 -17.1732 66.8878 18.6661 8.11775 24.9373 -3.34057 -177.843 13.384 1.65978 4.54188e-006 -4.6773e-006 -0.980446 -1.22248 -22.0503 0.576838 -4.17324e-007 -3.52577e-006 -0.271086 18.0624 67.6024 -19.201 -8.10759 24.8026 3.47521 
52.4851 90.5235 9.25682 -1.05156 5.3162 -1.33441 -0.268901 -1.98096 0.142836 -0.533643 0.0402118 0.311167 -0.537561 1.68523 0.320187 2.40774 13.1362 -1.21727 -1.4655 5.44345 -0.506507 51.5428 -11.4344 -7.24313 84.6069 18.0547 37.4401 9.08362e-007 -1.01252e-006 -3.84796e-006 -4.86933 1.3261 -0.41711 1.62301e-006 -2.84595e-006 -3.01886 8.02909 -4.9514 0.697695 -45.1371 -11.1169 7.10567 -91.9908 12.7841 -30.7906 1.61708e-005 1.56403e-006 4.20762e-006 7.73487 21.0123 -2.10028 9.35215e-006 -1.01099e-006 3 -8.02888 -4.95147 -0.697695 -179.596 16.12 -0.516636 -180 7.01592e-015 179.142 175.066 20.7332 179.925 -2.46362e-006 3.61397e-006 0.272492 -17.1584 66.8916 18.6673 8.1123 24.8459 -3.29524 -177.894 13.3989 1.69782 4.54188e-006 -4.6773e-006 -0.980402 -1.18273 -22.2191 0.590996 -4.17324e-007 -3.52577e-006 -0.271981 18.0375 67.5918 -19.1926 -8.0987 24.6697 3.47139 
